<svg width="100" height="104" viewBox="0 0 100 104" fill="none" xmlns="http://www.w3.org/2000/svg">
<path d="M81.9995 98.3445C81.9995 100.278 80.1063 101.846 77.7745 101.846H22.2157C19.8838 101.846 17.9907 100.278 17.9907 98.3445C17.9907 89.0414 23.1501 81.8061 30.0929 77.2358C31.4213 76.3623 32.7904 75.5945 34.192 74.9242C36.1826 73.9736 38.2423 73.2301 40.3385 72.6776C42.6663 72.0601 45.0348 71.6864 47.4073 71.5361C48.9876 71.4305 50.5679 71.4304 52.132 71.5279C52.1645 71.532 52.197 71.532 52.2295 71.5361C54.7442 71.6945 57.2263 72.1008 59.6192 72.7345C61.7642 73.2992 63.8401 74.0467 65.7982 74.9689C75.1745 79.3645 81.9995 87.6398 81.9995 98.3445Z" fill="#FFE2E2"/>
<path d="M52.8633 71.5816C48.5773 71.9269 44.2954 73.0116 40.2857 74.9251C38.8842 75.5954 37.5151 76.3632 36.1867 77.2366C29.2439 81.8069 24.0845 89.0422 24.0845 98.3453C24.0845 100.279 25.9776 101.847 28.3095 101.847H22.2157C19.8838 101.847 17.9907 100.279 17.9907 98.3453C17.9907 89.0422 23.1501 81.8069 30.0929 77.2366C31.4214 76.3632 32.7904 75.5954 34.192 74.9251C38.4007 72.9182 42.9061 71.8213 47.4073 71.5369C48.9876 71.4313 50.5679 71.4313 52.132 71.5288C52.1645 71.5329 52.197 71.5329 52.2295 71.5369C52.4408 71.5491 52.652 71.5654 52.8633 71.5816Z" fill="#FFEFEE"/>
<path d="M81.9996 98.3453C81.9996 100.279 80.1064 101.847 77.7746 101.847H71.6808C74.0127 101.847 75.9058 100.279 75.9058 98.3453C75.9058 87.6407 69.0808 79.3654 59.7045 74.9697C55.7395 73.1091 51.3195 71.9432 46.7695 71.5816C46.9808 71.5654 47.1961 71.5491 47.4073 71.5369C48.9877 71.4313 50.568 71.4313 52.132 71.5288C52.1645 71.5329 52.197 71.5329 52.2295 71.5369C57.003 71.8376 61.6505 73.0238 65.7983 74.9697C75.1746 79.3654 81.9996 87.6407 81.9996 98.3453Z" fill="#FFCFCF"/>
<path d="M65.7981 74.9689V91.7307L50.0031 86.6607H49.9869L34.1919 91.7307V74.9242C36.1825 73.9736 38.2422 73.2301 40.3385 72.6776C42.6663 72.0601 45.0347 71.6864 47.4072 71.5361C48.9875 71.4305 50.5678 71.4304 52.1319 71.5279C52.1644 71.532 52.1969 71.532 52.2294 71.5361C54.7441 71.6945 57.2263 72.1008 59.6191 72.7345C61.7641 73.2992 63.84 74.0467 65.7981 74.9689Z" fill="#F9D335"/>
<path d="M59.619 72.7362C57.8924 77.9118 54.8049 84.1233 49.9949 86.6624C44.7624 83.8999 42.1868 77.5665 40.3384 72.6793C41.9959 72.2365 43.6737 71.9277 45.3596 71.7287V64.4283H54.6302V71.7652C56.3243 71.9801 57.9899 72.3055 59.619 72.7362Z" fill="#FFBB98"/>
<path d="M74.784 44.5413L71.079 35.1191C66.9202 35.1191 33.5411 35.1191 28.9107 35.1191L25.2057 44.5413C25.2057 44.5413 19.7046 56.8271 26.0393 63.7399C26.4431 64.1802 27.0903 64.4289 27.765 64.4289H72.2242C72.899 64.4289 73.5462 64.1802 73.95 63.7399C80.2854 56.8271 74.784 44.5413 74.784 44.5413Z" fill="#87828E"/>
<path d="M34.3029 64.4285H27.7656C27.09 64.4285 26.4448 64.1806 26.0398 63.7395C19.7031 56.8255 25.2074 44.5409 25.2074 44.5409L28.912 35.1191H35.4494L31.7448 44.5409C31.7448 44.5409 26.2405 56.8259 32.5772 63.7395C32.9822 64.181 33.6273 64.4285 34.3029 64.4285Z" fill="#A4A4A5"/>
<path d="M73.9492 63.7398C73.5482 64.181 72.899 64.4288 72.2234 64.4288H65.6861C66.3617 64.4288 67.0108 64.181 67.4118 63.7398C73.7485 56.8258 68.2487 44.5413 68.2487 44.5413L64.54 35.1195H71.0774L74.786 44.5413C74.786 44.5409 80.2863 56.8258 73.9492 63.7398Z" fill="#796E84"/>
<path d="M70.2425 25.7648V44.1383C70.2425 54.1865 62.8463 62.5816 53.2275 64.1599C53.2227 64.1599 53.2227 64.1599 53.2174 64.1599C50.6592 64.5991 47.2219 64.3362 46.695 64.1599C37.0714 62.5918 29.665 54.1917 29.665 44.1383V25.7648C29.665 24.3864 30.7936 23.2578 32.172 23.2578H67.7351C69.1135 23.2578 70.2425 24.3864 70.2425 25.7648Z" fill="#FFBB98"/>
<path d="M70.2423 25.9996V44.1383C70.2423 54.1865 62.8461 62.5816 53.2273 64.1599C53.2224 64.1599 53.2225 64.1599 53.2172 64.1599C50.659 64.5991 47.2217 64.3362 46.6948 64.1599C47.8136 63.9751 48.9024 63.7004 49.9558 63.336C57.9313 60.604 63.7045 53.0181 63.7045 44.1387V25.9996C63.7045 24.4912 62.4711 23.2578 60.9627 23.2578H67.5001C69.0085 23.2578 70.2423 24.4912 70.2423 25.9996Z" fill="#FFAA80"/>
<path d="M53.2174 64.1595C50.6592 64.5986 47.2219 64.3358 46.695 64.1595C37.0714 62.5914 29.665 54.1913 29.665 44.1379V25.9996C29.665 24.4912 30.9037 23.2578 32.4117 23.2578H38.9491C37.4407 23.2578 36.2024 24.4912 36.2024 25.9996V44.1383C36.2024 53.0177 41.9756 60.604 49.956 63.3356C51.0098 63.6951 52.0986 63.9746 53.2174 64.1595Z" fill="#FFCAA6"/>
<path d="M54.4578 2.15308H50.7154H49.2988H45.4508C33.8963 2.15308 24.5298 11.52 24.5298 23.0741V32.7169C24.5298 33.9145 25.4987 34.8879 26.6963 34.8976C44.4117 35.0427 47.7925 26.6008 49.541 19.4171C51.2647 26.6134 54.366 34.8026 73.1847 34.8676C74.3933 34.8716 75.3793 33.8958 75.3793 32.6872V23.0741C75.3793 11.52 66.0124 2.15308 54.4578 2.15308Z" fill="#87828E"/>
<path d="M75.3778 23.0754V32.6852C75.3778 33.8967 74.3927 34.8729 73.1857 34.8688C71.1983 34.8603 69.3812 34.7644 67.7293 34.5857C68.3919 34.2107 68.8408 33.5006 68.8408 32.6857V23.0754C68.8408 11.5216 59.4751 2.15149 47.9214 2.15149H54.4588C66.0117 2.1519 75.3778 11.5221 75.3778 23.0754Z" fill="#796E84"/>
<path d="M31.0677 23.0754V32.7157C31.0677 33.5396 31.521 34.2542 32.1966 34.6292C30.5363 34.8209 28.7102 34.9168 26.6964 34.8993C25.498 34.8863 24.5303 33.9142 24.5303 32.7157V23.0754C24.5303 11.5216 33.896 2.15149 45.4497 2.15149H51.9871C40.4334 2.1519 31.0677 11.5221 31.0677 23.0754Z" fill="#A4A4A5"/>
<path d="M45.3018 48.074H36.7003C35.6883 48.074 34.8677 47.2534 34.8677 46.2414V39.5493C34.8677 38.5373 35.6883 37.7167 36.7003 37.7167H45.3018C46.3138 37.7167 47.1344 38.5373 47.1344 39.5493V46.241C47.1344 47.2534 46.3142 48.074 45.3018 48.074Z" fill="#87828E"/>
<path d="M54.6075 37.7167H63.209C64.221 37.7167 65.0416 38.5373 65.0416 39.5493V46.241C65.0416 47.253 64.221 48.0736 63.209 48.0736H54.6075C53.5951 48.0736 52.7749 47.253 52.7749 46.241V39.5493C52.7749 38.5373 53.5951 37.7167 54.6075 37.7167Z" fill="#87828E"/>
<path d="M98.0446 17.8473C98.0446 17.8473 91.6482 20.1882 90.4051 31.4202C89.1664 20.1878 82.77 17.8473 82.77 17.8473C88.2804 17.0231 89.9334 12.6104 90.4096 9.50256C90.8812 12.61 92.5342 17.0227 98.0446 17.8473Z" fill="#F9D335"/>
<path d="M17.2204 36.6783C17.2204 36.6783 10.824 39.0191 9.58086 50.2511C8.34221 39.0187 1.9458 36.6783 1.9458 36.6783C7.45618 35.854 9.10921 31.4413 9.58533 28.3335C10.057 31.4409 11.71 35.8536 17.2204 36.6783Z" fill="#F9D335"/>
<path d="M19.1995 11.0106C19.1995 11.0106 14.0608 12.8911 13.0623 21.9143C12.067 12.8911 6.92871 11.0106 6.92871 11.0106C11.3552 10.3484 12.6832 6.80345 13.0659 4.30664C13.445 6.80345 14.773 10.3484 19.1995 11.0106Z" fill="#F9D335"/>
<path d="M19.4398 9.40345C16.7533 9.00166 15.1494 7.20482 14.6725 4.06288C14.393 2.21973 11.7382 2.24329 11.4595 4.06085C10.9781 7.20401 9.37296 9.00166 6.68846 9.40304C5.02975 9.65126 4.79575 11.9596 6.37037 12.5364C6.41221 12.5515 10.5864 14.2886 11.4473 22.0919C11.6585 24.0081 14.4653 24.011 14.6778 22.0927C15.5342 14.3548 19.5629 12.6161 19.777 12.5291C21.3362 11.9368 21.0864 9.64963 19.4398 9.40345ZM13.0633 15.5086C12.2594 13.7268 11.2897 12.4398 10.3862 11.5245C11.4627 10.9009 12.3613 10.0461 13.0637 8.98013C13.7657 10.0465 14.664 10.9013 15.7417 11.5249C14.8374 12.4402 13.8677 13.7272 13.0633 15.5086Z" fill="#5F266D"/>
<path d="M98.2846 16.2398C94.7478 15.7105 92.6386 13.362 92.0158 9.25802C91.7371 7.42259 89.0851 7.41487 88.8028 9.25599C88.1739 13.3611 86.063 15.7109 82.529 16.2394C81.8015 16.3483 81.2469 16.9357 81.164 17.667C81.0812 18.3978 81.5085 19.097 82.1935 19.3663C82.4173 19.4545 87.6909 21.6373 88.7894 31.5981C89.0006 33.5144 91.8074 33.5172 92.0199 31.5989C93.1188 21.671 98.3602 19.4695 98.6178 19.3671C100.179 18.7785 99.9356 16.4868 98.2846 16.2398ZM90.4062 24.4595C89.2561 21.5621 87.7437 19.6373 86.4112 18.3905C88.0865 17.535 89.4324 16.2406 90.4066 14.5539C91.38 16.2406 92.7259 17.5354 94.4021 18.3909C93.0696 19.6373 91.5567 21.5625 90.4062 24.4595Z" fill="#5F266D"/>
<path d="M17.4609 35.0711C13.9237 34.5418 11.8148 32.1933 11.1916 28.0893C10.9552 26.5326 9.17866 26.7085 9.58491 26.7085C8.78257 26.7085 8.10007 27.2939 7.9786 28.0877C7.34972 32.1929 5.23885 34.5426 1.70529 35.0711C0.0855665 35.3133 -0.189465 37.5846 1.36972 38.1976C3.57729 39.0467 7.13279 42.8752 7.9656 50.429C8.17685 52.3453 10.9836 52.3481 11.1961 50.4298C12.2954 40.4986 17.5405 38.2992 17.7944 38.1985C19.354 37.6098 19.1119 35.3177 17.4609 35.0711ZM9.57963 43.2965C8.67694 41.0227 7.36191 38.8785 5.58985 37.2202C7.2636 36.3642 8.60869 35.0703 9.58288 33.3848C10.5563 35.0716 11.9022 36.3659 13.5783 37.2218C12.2442 38.4694 10.7305 40.3955 9.57963 43.2965Z" fill="#5F266D"/>
<path d="M56.2555 70.36V66.0534H72.2248C73.3749 66.0534 74.4405 65.6101 75.1486 64.837C82.0093 57.3511 76.6927 44.8418 76.2836 43.9135L73.3631 36.4857C75.3452 36.4138 77.0043 34.7656 77.0043 32.6872V23.0745C77.0043 10.6421 66.8903 0.528076 54.4578 0.528076H45.4444C45.444 0.528076 45.4431 0.528076 45.4423 0.528076C33.0147 0.532951 22.9048 10.6457 22.9048 23.0745V32.7169C22.9048 34.7749 24.5627 36.4645 26.6143 36.5186L23.7067 43.9131C23.2976 44.8414 17.9815 57.3507 24.8414 64.8362C25.5495 65.6093 26.6151 66.0529 27.7656 66.0529H43.7349V70.3084C40.1456 70.8804 36.7315 71.9107 33.4921 73.4577C33.0858 73.753 16.3662 80.5991 16.3662 98.3445C16.3662 101.172 18.9906 103.471 22.2162 103.471H77.775C81.0006 103.471 83.625 101.172 83.625 98.3445C83.6246 83.4417 71.1799 72.7849 56.2555 70.36ZM60.6446 74.717C61.8577 75.0912 63.0378 75.5259 64.1733 76.0174V89.5021L53.5909 86.1054C56.8413 83.2117 59.1476 78.7686 60.6446 74.717ZM72.7525 62.6417C72.5104 62.9061 72.4149 62.8034 61.4218 62.8034C67.6845 58.9424 71.8693 52.0211 71.8693 44.139V41.5683C73.3513 45.3379 78.4571 56.4171 72.7525 62.6417ZM26.1548 32.7173V23.0745C26.1548 12.4345 34.8112 3.77808 45.4509 3.77808H54.4578C65.0979 3.77808 73.7543 12.4345 73.7543 23.0745V32.6872C73.7543 33.0037 73.4919 33.2426 73.1921 33.2426C73.1916 33.2426 73.1908 33.2426 73.19 33.2426C55.9362 33.1833 52.9056 26.4899 51.1209 19.0385C50.9458 18.3084 50.2942 17.7933 49.5434 17.7921C49.5426 17.7921 49.5414 17.7921 49.5406 17.7921C48.7915 17.7921 48.139 18.3048 47.9615 19.0328C45.7799 27.9971 41.1263 33.3904 26.7093 33.273C26.4038 33.2706 26.1548 33.0212 26.1548 32.7173ZM27.2379 62.6417C21.5695 56.4561 26.5883 45.467 28.0398 41.7754V44.139C28.0398 52.0211 32.2254 58.9424 38.4898 62.8034C27.5974 62.8034 27.482 62.9065 27.2379 62.6417ZM31.2898 44.139V36.3528C37.3393 35.8308 41.9181 34.1018 45.201 31.1065C47.2436 29.243 48.5831 27.0534 49.526 24.8202C51.8489 30.3968 56.5447 35.2945 68.6189 36.3012V44.139C68.6189 54.4293 60.2469 62.8013 49.9566 62.8013C39.6638 62.8013 31.2898 54.4293 31.2898 44.139ZM46.9849 66.0534H53.0055V71.7689C53.0055 72.5899 53.6177 73.2822 54.4326 73.3821C55.417 73.5028 56.4485 73.6778 57.4787 73.8968C55.987 77.811 53.5296 82.4992 49.9936 84.7762C46.369 82.4634 44.1013 77.8508 42.523 73.8338C47.7356 72.7528 46.9849 74.4111 46.9849 66.0534ZM35.8171 75.9671C36.959 75.4662 38.1412 75.0258 39.3518 74.6508C40.9545 78.7808 43.0455 83.1528 46.3905 86.1091L35.8171 89.5029V75.9671ZM77.7746 100.222H22.2158C20.8065 100.222 19.6158 99.3622 19.6158 98.3449C19.6158 89.2848 24.8511 82.0913 32.5671 77.6225V91.7312C32.5671 92.8256 33.6335 93.6154 34.6889 93.2786L49.9952 88.3654L65.3019 93.2786C66.3496 93.6158 67.4237 92.8305 67.4237 91.7312V77.6441C75.5804 82.3021 80.375 89.8832 80.375 98.3449C80.3746 99.3618 79.1838 100.222 77.7746 100.222Z" fill="#5F266D"/>
<path d="M55.8284 53.0205V52.1637C55.8284 51.2663 55.1008 50.5387 54.2034 50.5387C53.306 50.5387 52.5784 51.2663 52.5784 52.1637V53.0205C52.5784 54.4675 51.4011 55.6444 49.954 55.6444C48.507 55.6444 47.3301 54.4675 47.3301 53.0205V52.1637C47.3301 51.2663 46.6025 50.5387 45.7051 50.5387C44.8077 50.5387 44.0801 51.2663 44.0801 52.1637V53.0205C44.0801 56.2595 46.715 58.8944 49.954 58.8944C53.1931 58.8944 55.8284 56.2595 55.8284 53.0205Z" fill="#5F266D"/>
<path d="M60.2292 12.6895C63.175 14.1281 65.3878 16.7593 66.2994 19.909C66.5054 20.6203 67.1546 21.0827 67.8594 21.0827C68.0089 21.0827 68.1613 21.0619 68.312 21.0181C69.174 20.7686 69.6705 19.8676 69.421 19.0055C68.2543 14.9763 65.424 11.6097 61.6548 9.76941C60.8484 9.37656 59.8754 9.7105 59.4817 10.5169C59.0885 11.3229 59.4228 12.2955 60.2292 12.6895Z" fill="#5F266D"/>
<path d="M66.7578 25.2601V26.7389C66.7578 27.6363 67.4854 28.3639 68.3828 28.3639C69.2802 28.3639 70.0078 27.6363 70.0078 26.7389V25.2601C70.0078 24.3627 69.2802 23.6351 68.3828 23.6351C67.4854 23.6351 66.7578 24.3627 66.7578 25.2601Z" fill="#5F266D"/>
<path d="M48.7593 46.2413V39.5491C48.7593 37.643 47.2082 36.0916 45.3017 36.0916H36.6998C34.7933 36.0916 33.2422 37.6426 33.2422 39.5491V46.2413C33.2422 48.1474 34.7933 49.6989 36.6998 49.6989H45.3013C47.2078 49.6985 48.7593 48.1474 48.7593 46.2413ZM36.4922 45.9683V44.388L39.5017 42.6752C40.2817 42.2312 40.5543 41.2391 40.1102 40.4591C39.6662 39.6791 38.6746 39.4066 37.8942 39.8506L36.4922 40.6485V39.5491C36.4922 39.435 36.5852 39.3416 36.6998 39.3416H45.3013C45.4159 39.3416 45.5089 39.4346 45.5089 39.5491V40.837L36.4922 45.9683ZM45.5093 44.5765V46.2413C45.5093 46.3555 45.4163 46.4489 45.3017 46.4489H42.2195L45.5093 44.5765Z" fill="#5F266D"/>
<path d="M54.6075 49.6985H63.209C65.1156 49.6985 66.6666 48.1474 66.6666 46.2409V39.5491C66.6666 37.643 65.1156 36.0916 63.209 36.0916H54.6075C52.701 36.0916 51.1499 37.6426 51.1499 39.5491V46.2413C51.1499 48.1474 52.701 49.6985 54.6075 49.6985ZM54.3999 39.5491C54.3999 39.435 54.4929 39.3416 54.6075 39.3416H57.6893L54.3995 41.2135V39.5491H54.3999ZM54.3999 44.9531L63.417 39.8217V41.4021L60.4071 43.1148C59.6271 43.5588 59.3545 44.5509 59.7986 45.3309C60.098 45.8574 60.6472 46.1523 61.2123 46.1523C61.4845 46.1523 61.7607 46.0837 62.0147 45.9395L63.417 45.1416V46.2413C63.417 46.3555 63.324 46.4489 63.2094 46.4489H54.6079C54.4933 46.4489 54.4003 46.3559 54.4003 46.2413V44.9531H54.3999Z" fill="#5F266D"/>
</svg>
