<svg width="104" height="104" viewBox="0 0 104 104" fill="none" xmlns="http://www.w3.org/2000/svg">
<path d="M67.0513 68.0242C63.6875 71.388 59.491 73.403 55.1238 74.0773C52.926 74.4186 50.6875 74.4145 48.4938 74.0773H48.4897C44.4882 73.4558 40.6328 71.7089 37.4357 68.8367C28.1041 60.4273 27.9497 46.1842 36.5785 37.5555C39.9016 34.2323 44.09 32.193 48.4857 31.5064H48.4938C50.6835 31.1651 52.9219 31.1611 55.1319 31.5023C55.1319 31.5023 61.636 32.1361 67.0513 37.5555C75.4607 45.9689 75.4607 59.6108 67.0513 68.0242Z" fill="#44C7B6"/>
<path d="M44.1022 68.8367C47.2913 71.7008 51.1385 73.4476 55.1238 74.0773C48.9244 75.0361 42.3878 73.2811 37.4357 68.8367C28.1041 60.4273 27.9497 46.1842 36.5785 37.5554C41.5591 32.5748 48.4897 30.4745 55.1319 31.5023C55.136 31.5064 55.1441 31.5064 55.1481 31.5064C51.1547 32.1279 47.2994 33.8708 44.1022 36.747C43.8097 37.0029 43.5213 37.2751 43.241 37.5554C34.8275 45.9729 34.8275 59.6108 43.241 68.0242C43.5213 68.3045 43.8097 68.5767 44.1022 68.8367Z" fill="#4BDBC3"/>
<path d="M67.0516 68.0242C63.6879 71.388 59.4913 73.403 55.1241 74.0773C52.9263 74.4186 50.6879 74.4145 48.4941 74.0773C52.4876 73.4517 56.3348 71.7048 59.532 68.8367C59.8204 68.5726 60.1048 68.3045 60.3851 68.0242C68.7985 59.6108 68.7985 45.973 60.3851 37.5555C60.1048 37.2751 59.8204 37.007 59.532 36.747C56.3348 33.8708 52.4835 32.132 48.4941 31.5064C50.6838 31.1651 52.9223 31.1611 55.1323 31.5023C55.1323 31.5023 61.6363 32.1361 67.0516 37.5555C75.461 45.9689 75.461 59.6108 67.0516 68.0242Z" fill="#3BB2A0"/>
<path d="M17.7985 10.4756C17.7985 10.4756 13.7701 20.1959 24.7527 22.174C24.7527 22.174 29.4112 11.7248 17.7985 10.4756Z" fill="#FFE2E2"/>
<path d="M2.94411 37.3462C2.94411 37.3462 -0.415988 47.3172 10.6759 48.5461C10.6754 48.5461 14.6149 37.8053 2.94411 37.3462Z" fill="#FFE2E2"/>
<path d="M4.79492 76.5538C4.79492 76.5538 10.6092 85.3232 18.3828 77.3168C18.3828 77.3168 12.3154 67.6176 4.79492 76.5538Z" fill="#FFE2E2"/>
<path d="M30.5804 35.1402C30.5804 35.1402 23.9443 26.9746 16.9824 35.696C16.9824 35.696 23.9602 44.7623 30.5804 35.1402Z" fill="#FFE2E2"/>
<path d="M23.988 53.9054C23.988 53.9054 14.0214 50.5327 12.7783 61.6225C12.7779 61.6229 23.5139 65.5757 23.988 53.9054Z" fill="#FFE2E2"/>
<path d="M37.4362 76.7479C37.4362 76.7479 27.4697 73.3752 26.2266 84.465C26.2262 84.465 36.9621 88.4179 37.4362 76.7479Z" fill="#FFE2E2"/>
<path d="M86.2015 10.4756C86.2015 10.4756 90.2299 20.1959 79.2474 22.174C79.2474 22.174 74.5889 11.7248 86.2015 10.4756Z" fill="#FFE2E2"/>
<path d="M101.056 37.3462C101.056 37.3462 104.416 47.3172 93.3241 48.5461C93.3245 48.5461 89.3851 37.8053 101.056 37.3462Z" fill="#FFE2E2"/>
<path d="M99.205 76.5538C99.205 76.5538 93.3908 85.3232 85.6172 77.3168C85.6172 77.3168 91.6845 67.6176 99.205 76.5538Z" fill="#FFE2E2"/>
<path d="M73.4189 35.1402C73.4189 35.1402 80.055 26.9746 87.0169 35.696C87.0169 35.696 80.0392 44.7623 73.4189 35.1402Z" fill="#FFE2E2"/>
<path d="M80.0117 53.9054C80.0117 53.9054 89.9782 50.5327 91.2214 61.6225C91.2218 61.6229 80.4858 65.5757 80.0117 53.9054Z" fill="#FFE2E2"/>
<path d="M66.5635 76.7479C66.5635 76.7479 76.53 73.3752 77.7731 84.465C77.7735 84.465 67.0376 88.4179 66.5635 76.7479Z" fill="#FFE2E2"/>
<path d="M28.6512 53.3987C28.8169 59.8077 31.5506 65.7191 36.3508 70.0465C40.7586 74.0017 46.2869 75.9639 51.8066 75.9639C57.7521 75.9639 63.6874 73.6873 68.2008 69.1734C77.2306 60.1397 77.2306 45.4411 68.2008 36.4073C68.2008 36.4073 68.2008 36.4073 68.2004 36.4073C53.584 21.788 28.1064 32.3534 28.6512 53.3987ZM31.9 53.3147C31.761 47.9367 33.7269 42.8773 37.4351 39.0126C41.0093 42.7388 42.9776 47.6121 42.9776 52.791C42.9776 57.9683 41.0105 62.8408 37.4371 66.5669C33.9869 62.9663 32.0296 58.3176 31.9 53.3147ZM66.1936 66.5694C62.619 62.8433 60.6511 57.9695 60.6511 52.791C60.6511 47.6121 62.6194 42.7379 66.1944 39.0114C73.5613 46.6989 73.5609 58.8823 66.1936 66.5694ZM57.4011 52.791C57.4011 58.7743 59.6598 64.4073 63.7646 68.7298C56.7295 74.0147 46.9568 74.0627 39.8661 68.7278C43.9696 64.4053 46.2276 58.773 46.2276 52.791C46.2276 46.8094 43.9701 41.1779 39.8681 36.8558C46.6659 31.7753 56.3282 31.3227 63.7601 36.8563C59.6582 41.1783 57.4011 46.8098 57.4011 52.791Z" fill="#5F266D"/>
<path d="M56.4925 40.2379C56.6806 40.3085 56.8735 40.3419 57.0624 40.3419C57.7206 40.3419 58.3401 39.9393 58.5843 39.2868C58.8991 38.4467 58.4738 37.5099 57.6332 37.1951C57.6223 37.1906 57.5759 37.1743 57.5646 37.1703C56.7248 36.8761 55.8209 37.3194 55.5175 38.1566C55.214 38.9939 55.6584 39.9255 56.4925 40.2379Z" fill="#5F266D"/>
<path d="M45.9289 37.1093C44.0858 38.138 45.6064 40.9541 47.4966 39.9563C47.5092 39.9494 48.8015 39.2803 51.0842 39.2503C51.9816 39.2385 52.6995 38.5016 52.6877 37.6041C52.6759 36.7071 51.9353 35.98 51.0412 36.0007C47.9305 36.0417 46.1247 37.0005 45.9289 37.1093Z" fill="#5F266D"/>
<path d="M9.54456 50.0281C9.48606 50.943 9.45315 51.8635 9.45315 52.7898C9.45315 59.5335 11.04 65.9129 13.8557 71.578C13.2301 71.3627 12.5638 71.214 11.8582 71.1641C8.94331 70.9618 6.14993 72.4206 3.55196 75.5073C3.08762 76.059 3.04253 76.8508 3.44106 77.4516C3.56009 77.6308 6.40709 81.8497 11.018 82.2779C11.274 82.3014 11.5291 82.3132 11.7838 82.3132C14.162 82.3132 16.4959 81.2765 18.7429 79.2277C20.6462 81.6039 22.7997 83.7708 25.1632 85.6891C25.1876 85.7103 25.2128 85.7302 25.2388 85.7501C32.5115 91.6253 41.7582 95.1495 51.8137 95.1495C51.8778 95.1495 51.9388 95.1377 52.0009 95.1304C52.0631 95.1377 52.124 95.1495 52.1882 95.1495C62.2437 95.1495 71.4904 91.6253 78.7631 85.7501C78.7887 85.7302 78.8142 85.7107 78.8386 85.6891C81.2022 83.7708 83.3553 81.6039 85.2586 79.2277C87.5056 81.276 89.8391 82.3128 92.2177 82.3128C92.4724 82.3128 92.7279 82.301 92.9834 82.2775C97.5948 81.8493 100.441 77.6308 100.56 77.4512C100.959 76.8503 100.913 76.0586 100.449 75.5069C97.8511 72.4198 95.0553 70.9613 92.1433 71.1637C91.4381 71.2132 90.7714 71.3623 90.1458 71.5776C92.9615 65.9125 94.5483 59.5331 94.5483 52.7894C94.5483 51.8627 94.515 50.9422 94.4569 50.0277C97.8552 49.4719 100.312 48.0448 101.761 45.7714C104.252 41.8669 102.666 37.0309 102.597 36.827C102.367 36.1433 101.702 35.6952 100.993 35.722C96.9667 35.8804 94.1002 37.1886 92.4744 39.6102C90.4444 33.3552 86.9795 27.6827 82.3527 23.0145C84.7211 22.1293 86.4408 20.731 87.4771 18.8334C89.6969 14.7688 87.7871 10.0519 87.7046 9.85322C87.4284 9.18697 86.7434 8.78153 86.0296 8.85953C82.0179 9.29097 79.2449 10.7933 77.7885 13.325C76.8671 14.9261 76.6437 16.6819 76.7196 18.2459C74.95 16.9947 73.0719 15.8617 71.087 14.8708C70.283 14.4698 69.3076 14.7957 68.907 15.5988C68.5065 16.402 68.8319 17.3774 69.635 17.7783C76.131 21.0214 81.426 25.8615 85.1578 31.6904C83.5787 30.6069 81.9111 30.0524 80.1687 30.0447C80.1565 30.0447 80.1451 30.0447 80.1329 30.0447C75.5212 30.0447 72.2956 33.9479 72.1599 34.1145C71.7053 34.6739 71.6736 35.4665 72.0827 36.0608C74.3699 39.3848 77.0097 41.1097 79.9294 41.1877C79.9964 41.1893 80.0631 41.1901 80.1297 41.1901C84.0723 41.1901 87.0973 38.0961 88.0195 37.0338C90.1494 41.8978 91.2995 47.2388 91.2995 52.7894C91.2995 53.8785 91.2524 54.9567 91.1646 56.0235C90.4586 54.8446 89.5502 53.8964 88.4391 53.1899C84.5322 50.7053 79.6978 52.297 79.4935 52.3657C78.8102 52.5968 78.3617 53.2505 78.3905 53.9712C78.5542 58.0028 79.8693 60.8689 82.2982 62.491C83.9066 63.5652 85.7359 63.8881 87.3569 63.8881C88.2433 63.8881 89.0668 63.7914 89.7582 63.6675C87.7631 70.5474 83.9249 76.6505 78.8159 81.4069C78.0895 78.9933 76.8102 77.19 74.9902 76.0322C71.0837 73.5475 66.2489 75.1392 66.0446 75.2079C65.3613 75.439 64.9128 76.0927 64.9416 76.813C65.1053 80.8446 66.42 83.7111 68.8489 85.3329C69.8211 85.982 70.8737 86.3538 71.9125 86.5488C66.1181 89.947 59.3776 91.8987 52.1886 91.8987C52.1244 91.8987 52.0635 91.9104 52.0013 91.9178C51.9392 91.9104 51.8782 91.8987 51.8141 91.8987C44.6251 91.8987 37.8846 89.947 32.0902 86.5488C33.129 86.3538 34.182 85.982 35.1537 85.3329C37.5827 83.7111 38.8973 80.8446 39.0611 76.813C39.0899 76.0927 38.6414 75.439 37.9581 75.2079C37.7542 75.1392 32.9206 73.5471 29.0125 76.0322C27.1925 77.1896 25.9136 78.9933 25.1868 81.4069C20.0778 76.6505 16.24 70.5474 14.2445 63.6675C14.9359 63.791 15.7594 63.8881 16.6458 63.8881C18.2667 63.8881 20.0965 63.5648 21.7044 62.491C24.1334 60.8693 25.4484 58.0028 25.6122 53.9712C25.641 53.2505 25.1925 52.5972 24.5092 52.3657C24.3052 52.297 19.4721 50.7049 15.5636 53.1899C14.4525 53.8964 13.5437 54.8446 12.838 56.0235C12.7503 54.9567 12.7032 53.8785 12.7032 52.7894C12.7032 47.2388 13.8532 41.8978 15.9832 37.0338C16.9054 38.0961 19.9295 41.1901 23.873 41.1901C23.9392 41.1901 24.0067 41.1893 24.0733 41.1877C26.9934 41.1101 29.6332 39.3848 31.92 36.0608C32.3291 35.4669 32.2974 34.6743 31.8428 34.1145C31.7071 33.9479 28.4819 30.0447 23.8697 30.0447C23.858 30.0447 23.8458 30.0447 23.834 30.0447C22.0916 30.0524 20.4239 30.6069 18.8448 31.6904C22.5762 25.8611 27.8713 21.0214 34.3677 17.7783C35.1708 17.3774 35.4962 16.4016 35.0957 15.5988C34.6947 14.7957 33.7185 14.4698 32.9157 14.8708C30.9308 15.8617 29.0531 16.9947 27.2831 18.2459C27.3586 16.6823 27.1352 14.9261 26.2142 13.325C24.7578 10.7933 21.9847 9.29097 17.973 8.85953C17.258 8.78194 16.5743 9.18697 16.2981 9.85322C16.2156 10.0519 14.3058 14.7688 16.5256 18.8334C17.5619 20.731 19.2816 22.1293 21.65 23.0145C17.022 27.6831 13.5571 33.3556 11.5271 39.6106C9.90125 37.1894 7.03515 35.8808 3.008 35.7224C2.29178 35.6944 1.63406 36.1437 1.40412 36.8274C1.33547 37.0313 -0.250129 41.8673 2.24018 45.7718C3.68968 48.0448 6.14628 49.4724 9.54456 50.0281ZM95.1747 41.4164C96.0287 40.1493 97.5765 39.3661 99.7865 39.0793C99.9868 40.3553 100.066 42.3971 99.0101 44.0392C98.1546 45.3704 96.6466 46.2674 94.5182 46.7143C94.2416 45.3253 94.0543 43.08 95.1747 41.4164ZM80.3166 20.265C79.9493 18.8988 79.6105 16.6725 80.6034 14.9464C81.3675 13.6183 82.8609 12.7283 85.0506 12.2911C85.3346 13.5473 85.5523 15.574 84.6228 17.2758C83.8619 18.6701 82.4161 19.6727 80.3166 20.265ZM80.0139 37.9393C78.4823 37.8983 76.9894 37.0082 75.5634 35.2893C76.5299 34.4452 78.2012 33.2955 80.1313 33.2955H80.1524C81.7409 33.3024 83.3098 34.0978 84.8296 35.6631C83.8022 36.6357 81.9887 37.9909 80.0139 37.9393ZM84.1012 59.7883C82.8268 58.9376 82.0378 57.3889 81.7474 55.1745C83.0197 54.975 85.0567 54.8925 86.6931 55.9329C88.0337 56.7853 88.9372 58.2945 89.3889 60.4289C88.0004 60.7044 85.7562 60.8937 84.1012 59.7883ZM92.383 74.4055C93.9044 74.2995 95.4758 75.045 97.0577 76.6143C96.1725 77.5552 94.6092 78.8702 92.6641 79.0437C91.0858 79.1847 89.4543 78.5432 87.7964 77.1368C88.7235 76.0659 90.3818 74.5404 92.383 74.4055ZM70.6523 82.6309C69.3779 81.7802 68.5889 80.2303 68.2989 78.0155C69.5753 77.8136 71.6159 77.7315 73.2596 78.7853C74.5913 79.6393 75.4899 81.1452 75.94 83.2715C74.5523 83.5466 72.3077 83.7363 70.6523 82.6309ZM30.7407 78.7849C32.3843 77.7311 34.4249 77.8132 35.7014 78.0151C35.4121 80.2243 34.6264 81.7717 33.3581 82.6236C31.6925 83.7428 29.448 83.5519 28.0594 83.2736C28.5095 81.146 29.4082 79.6393 30.7407 78.7849ZM17.2922 55.9423C18.9358 54.8885 20.9764 54.9709 22.2529 55.1724C21.9636 57.3816 21.1779 58.929 19.9096 59.7809C18.2436 60.9006 15.9987 60.7088 14.6105 60.4309C15.0606 58.3038 15.9597 56.7966 17.2922 55.9423ZM16.2046 77.1359C14.5455 78.5428 12.9099 79.183 11.3365 79.0433C9.3914 78.8698 7.82775 77.5548 6.94293 76.6139C8.52447 75.045 10.0897 74.3007 11.6177 74.4051C13.6188 74.5404 15.2772 76.0667 16.2046 77.1359ZM23.8295 33.2955H23.8689C25.8051 33.2955 27.4724 34.4431 28.4376 35.2881C27.0153 37.0033 25.5264 37.8938 23.9989 37.9389C23.9563 37.9401 23.9136 37.9405 23.8718 37.9405C21.9169 37.9405 20.1733 36.619 19.169 35.6647C20.6831 34.1043 22.2472 33.3085 23.8295 33.2955ZM19.386 17.2921C18.4439 15.5818 18.6616 13.5505 18.948 12.2911C21.1332 12.7266 22.6246 13.6135 23.3908 14.9358C24.3967 16.6721 24.0566 18.9 23.6869 20.2662C21.5931 19.6755 20.1497 18.6786 19.386 17.2921ZM4.21375 39.0793C6.42334 39.3661 7.97156 40.1493 8.8255 41.4164C9.94675 43.0804 9.75865 45.3266 9.4824 46.7147C7.35406 46.2678 5.84606 45.3708 4.99009 44.0396C3.93425 42.3971 4.01347 40.3553 4.21375 39.0793Z" fill="#5F266D"/>
</svg>
