<svg width="104" height="104" viewBox="0 0 104 104" fill="none" xmlns="http://www.w3.org/2000/svg">
<path d="M83.9995 98.3445C83.9995 100.278 82.1063 101.846 79.7745 101.846H24.2157C21.8838 101.846 19.9907 100.278 19.9907 98.3445C19.9907 89.0414 25.1501 81.8061 32.0929 77.2358C33.4213 76.3623 34.7904 75.5945 36.192 74.9242C38.1826 73.9736 40.2423 73.2301 42.3385 72.6776C44.6663 72.0601 47.0348 71.6864 49.4073 71.5361C50.9876 71.4305 52.5679 71.4304 54.132 71.5279C54.1645 71.532 54.197 71.532 54.2295 71.5361C56.7442 71.6945 59.2263 72.1008 61.6192 72.7345C63.7642 73.2992 65.8401 74.0467 67.7982 74.9689C77.1745 79.3645 83.9995 87.6398 83.9995 98.3445Z" fill="#FFE2E2"/>
<path d="M54.8633 71.5816C50.5773 71.9269 46.2954 73.0116 42.2857 74.9251C40.8842 75.5954 39.5151 76.3632 38.1867 77.2366C31.2439 81.8069 26.0845 89.0422 26.0845 98.3453C26.0845 100.279 27.9776 101.847 30.3095 101.847H24.2157C21.8838 101.847 19.9907 100.279 19.9907 98.3453C19.9907 89.0422 25.1501 81.8069 32.0929 77.2366C33.4214 76.3632 34.7904 75.5954 36.192 74.9251C40.4007 72.9182 44.9061 71.8213 49.4073 71.5369C50.9876 71.4313 52.5679 71.4313 54.132 71.5288C54.1645 71.5329 54.197 71.5329 54.2295 71.5369C54.4408 71.5491 54.652 71.5654 54.8633 71.5816Z" fill="#FFEFEE"/>
<path d="M83.9996 98.3453C83.9996 100.279 82.1064 101.847 79.7746 101.847H73.6808C76.0127 101.847 77.9058 100.279 77.9058 98.3453C77.9058 87.6407 71.0808 79.3654 61.7045 74.9697C57.7395 73.1091 53.3195 71.9432 48.7695 71.5816C48.9808 71.5654 49.1961 71.5491 49.4073 71.5369C50.9877 71.4313 52.568 71.4313 54.132 71.5288C54.1645 71.5329 54.197 71.5329 54.2295 71.5369C59.003 71.8376 63.6505 73.0238 67.7983 74.9697C77.1746 79.3654 83.9996 87.6407 83.9996 98.3453Z" fill="#FFCFCF"/>
<path d="M67.7981 74.9689V91.7307L52.0031 86.6607H51.9869L36.1919 91.7307V74.9242C38.1825 73.9736 40.2422 73.2301 42.3385 72.6776C44.6663 72.0601 47.0347 71.6864 49.4072 71.5361C50.9875 71.4305 52.5678 71.4304 54.1319 71.5279C54.1644 71.532 54.1969 71.532 54.2294 71.5361C56.7441 71.6945 59.2263 72.1008 61.6191 72.7345C63.7641 73.2992 65.84 74.0467 67.7981 74.9689Z" fill="#F9D335"/>
<path d="M61.619 72.7362C59.8924 77.9118 56.8049 84.1233 51.9949 86.6624C46.7624 83.8999 44.1868 77.5665 42.3384 72.6793C43.9959 72.2365 45.6737 71.9277 47.3596 71.7287V64.4283H56.6302V71.7652C58.3243 71.9801 59.9899 72.3055 61.619 72.7362Z" fill="#FFBB98"/>
<path d="M76.784 44.5413L73.079 35.1191C68.9202 35.1191 35.5411 35.1191 30.9107 35.1191L27.2057 44.5413C27.2057 44.5413 21.7046 56.8271 28.0393 63.7399C28.4431 64.1802 29.0903 64.4289 29.765 64.4289H74.2242C74.899 64.4289 75.5462 64.1802 75.95 63.7399C82.2854 56.8271 76.784 44.5413 76.784 44.5413Z" fill="#87828E"/>
<path d="M36.3029 64.4285H29.7656C29.09 64.4285 28.4448 64.1806 28.0398 63.7395C21.7031 56.8255 27.2074 44.5409 27.2074 44.5409L30.912 35.1191H37.4494L33.7448 44.5409C33.7448 44.5409 28.2405 56.8259 34.5772 63.7395C34.9822 64.181 35.6273 64.4285 36.3029 64.4285Z" fill="#A4A4A5"/>
<path d="M75.9492 63.7398C75.5482 64.181 74.899 64.4288 74.2234 64.4288H67.6861C68.3617 64.4288 69.0108 64.181 69.4118 63.7398C75.7485 56.8258 70.2487 44.5413 70.2487 44.5413L66.54 35.1195H73.0774L76.786 44.5413C76.786 44.5409 82.2863 56.8258 75.9492 63.7398Z" fill="#796E84"/>
<path d="M72.2425 25.7648V44.1383C72.2425 54.1865 64.8463 62.5816 55.2275 64.1599C55.2227 64.1599 55.2227 64.1599 55.2174 64.1599C52.6592 64.5991 49.2219 64.3362 48.695 64.1599C39.0714 62.5918 31.665 54.1917 31.665 44.1383V25.7648C31.665 24.3864 32.7936 23.2578 34.172 23.2578H69.7351C71.1135 23.2578 72.2425 24.3864 72.2425 25.7648Z" fill="#FFBB98"/>
<path d="M72.2423 25.9996V44.1383C72.2423 54.1865 64.8461 62.5816 55.2273 64.1599C55.2224 64.1599 55.2225 64.1599 55.2172 64.1599C52.659 64.5991 49.2217 64.3362 48.6948 64.1599C49.8136 63.9751 50.9024 63.7004 51.9558 63.336C59.9313 60.604 65.7045 53.0181 65.7045 44.1387V25.9996C65.7045 24.4912 64.4711 23.2578 62.9627 23.2578H69.5001C71.0085 23.2578 72.2423 24.4912 72.2423 25.9996Z" fill="#FFAA80"/>
<path d="M55.2174 64.1595C52.6592 64.5986 49.2219 64.3358 48.695 64.1595C39.0714 62.5914 31.665 54.1913 31.665 44.1379V25.9996C31.665 24.4912 32.9037 23.2578 34.4117 23.2578H40.9491C39.4407 23.2578 38.2024 24.4912 38.2024 25.9996V44.1383C38.2024 53.0177 43.9756 60.604 51.956 63.3356C53.0098 63.6951 54.0986 63.9746 55.2174 64.1595Z" fill="#FFCAA6"/>
<path d="M56.4578 2.15308H52.7154H51.2988H47.4508C35.8963 2.15308 26.5298 11.52 26.5298 23.0741V32.7169C26.5298 33.9145 27.4987 34.8879 28.6963 34.8976C46.4117 35.0427 49.7925 26.6008 51.541 19.4171C53.2647 26.6134 56.366 34.8026 75.1847 34.8676C76.3933 34.8716 77.3793 33.8958 77.3793 32.6872V23.0741C77.3793 11.52 68.0124 2.15308 56.4578 2.15308Z" fill="#87828E"/>
<path d="M77.3778 23.0754V32.6852C77.3778 33.8967 76.3927 34.8729 75.1857 34.8688C73.1983 34.8603 71.3812 34.7644 69.7293 34.5857C70.3919 34.2107 70.8408 33.5006 70.8408 32.6857V23.0754C70.8408 11.5216 61.4751 2.15149 49.9214 2.15149H56.4588C68.0117 2.1519 77.3778 11.5221 77.3778 23.0754Z" fill="#796E84"/>
<path d="M33.0677 23.0754V32.7157C33.0677 33.5396 33.521 34.2542 34.1966 34.6292C32.5363 34.8209 30.7102 34.9168 28.6964 34.8993C27.498 34.8863 26.5303 33.9142 26.5303 32.7157V23.0754C26.5303 11.5216 35.896 2.15149 47.4497 2.15149H53.9871C42.4334 2.1519 33.0677 11.5221 33.0677 23.0754Z" fill="#A4A4A5"/>
<path d="M47.3018 48.074H38.7003C37.6883 48.074 36.8677 47.2534 36.8677 46.2414V39.5493C36.8677 38.5373 37.6883 37.7167 38.7003 37.7167H47.3018C48.3138 37.7167 49.1344 38.5373 49.1344 39.5493V46.241C49.1344 47.2534 48.3142 48.074 47.3018 48.074Z" fill="#87828E"/>
<path d="M56.6075 37.7167H65.209C66.221 37.7167 67.0416 38.5373 67.0416 39.5493V46.241C67.0416 47.253 66.221 48.0736 65.209 48.0736H56.6075C55.5951 48.0736 54.7749 47.253 54.7749 46.241V39.5493C54.7749 38.5373 55.5951 37.7167 56.6075 37.7167Z" fill="#87828E"/>
<path d="M100.045 17.8473C100.045 17.8473 93.6482 20.1882 92.4051 31.4202C91.1664 20.1878 84.77 17.8473 84.77 17.8473C90.2804 17.0231 91.9334 12.6104 92.4096 9.50256C92.8812 12.61 94.5342 17.0227 100.045 17.8473Z" fill="#F9D335"/>
<path d="M19.2204 36.6783C19.2204 36.6783 12.824 39.0191 11.5809 50.2511C10.3422 39.0187 3.9458 36.6783 3.9458 36.6783C9.45618 35.854 11.1092 31.4413 11.5853 28.3335C12.057 31.4409 13.71 35.8536 19.2204 36.6783Z" fill="#F9D335"/>
<path d="M21.1995 11.0106C21.1995 11.0106 16.0608 12.8911 15.0623 21.9143C14.067 12.8911 8.92871 11.0106 8.92871 11.0106C13.3552 10.3484 14.6832 6.80345 15.0659 4.30664C15.445 6.80345 16.773 10.3484 21.1995 11.0106Z" fill="#F9D335"/>
<path d="M21.4398 9.40345C18.7533 9.00166 17.1494 7.20482 16.6725 4.06288C16.393 2.21973 13.7382 2.24329 13.4595 4.06085C12.9781 7.20401 11.373 9.00166 8.68846 9.40304C7.02975 9.65126 6.79575 11.9596 8.37037 12.5364C8.41221 12.5515 12.5864 14.2886 13.4473 22.0919C13.6585 24.0081 16.4653 24.011 16.6778 22.0927C17.5342 14.3548 21.5629 12.6161 21.777 12.5291C23.3362 11.9368 23.0864 9.64963 21.4398 9.40345ZM15.0633 15.5086C14.2594 13.7268 13.2897 12.4398 12.3862 11.5245C13.4627 10.9009 14.3613 10.0461 15.0637 8.98013C15.7657 10.0465 16.664 10.9013 17.7417 11.5249C16.8374 12.4402 15.8677 13.7272 15.0633 15.5086Z" fill="#5F266D"/>
<path d="M100.285 16.2398C96.7478 15.7105 94.6386 13.362 94.0158 9.25802C93.7371 7.42259 91.0851 7.41487 90.8028 9.25599C90.1739 13.3611 88.063 15.7109 84.529 16.2394C83.8015 16.3483 83.2469 16.9357 83.164 17.667C83.0812 18.3978 83.5085 19.097 84.1935 19.3663C84.4173 19.4545 89.6909 21.6373 90.7894 31.5981C91.0006 33.5144 93.8074 33.5172 94.0199 31.5989C95.1188 21.671 100.36 19.4695 100.618 19.3671C102.179 18.7785 101.936 16.4868 100.285 16.2398ZM92.4062 24.4595C91.2561 21.5621 89.7437 19.6373 88.4112 18.3905C90.0865 17.535 91.4324 16.2406 92.4066 14.5539C93.38 16.2406 94.7259 17.5354 96.4021 18.3909C95.0696 19.6373 93.5567 21.5625 92.4062 24.4595Z" fill="#5F266D"/>
<path d="M19.4609 35.0711C15.9237 34.5418 13.8148 32.1933 13.1916 28.0893C12.9552 26.5326 11.1787 26.7085 11.5849 26.7085C10.7826 26.7085 10.1001 27.2939 9.9786 28.0877C9.34972 32.1929 7.23885 34.5426 3.70529 35.0711C2.08557 35.3133 1.81054 37.5846 3.36972 38.1976C5.57729 39.0467 9.13279 42.8752 9.9656 50.429C10.1768 52.3453 12.9836 52.3481 13.1961 50.4298C14.2954 40.4986 19.5405 38.2992 19.7944 38.1985C21.354 37.6098 21.1119 35.3177 19.4609 35.0711ZM11.5796 43.2965C10.6769 41.0227 9.36191 38.8785 7.58985 37.2202C9.2636 36.3642 10.6087 35.0703 11.5829 33.3848C12.5563 35.0716 13.9022 36.3659 15.5783 37.2218C14.2442 38.4694 12.7305 40.3955 11.5796 43.2965Z" fill="#5F266D"/>
<path d="M58.2555 70.36V66.0534H74.2248C75.3749 66.0534 76.4405 65.6101 77.1486 64.837C84.0093 57.3511 78.6927 44.8418 78.2836 43.9135L75.3631 36.4857C77.3452 36.4138 79.0043 34.7656 79.0043 32.6872V23.0745C79.0043 10.6421 68.8903 0.528076 56.4578 0.528076H47.4444C47.444 0.528076 47.4431 0.528076 47.4423 0.528076C35.0147 0.532951 24.9048 10.6457 24.9048 23.0745V32.7169C24.9048 34.7749 26.5627 36.4645 28.6143 36.5186L25.7067 43.9131C25.2976 44.8414 19.9815 57.3507 26.8414 64.8362C27.5495 65.6093 28.6151 66.0529 29.7656 66.0529H45.7349V70.3084C42.1456 70.8804 38.7315 71.9107 35.4921 73.4577C35.0858 73.753 18.3662 80.5991 18.3662 98.3445C18.3662 101.172 20.9906 103.471 24.2162 103.471H79.775C83.0006 103.471 85.625 101.172 85.625 98.3445C85.6246 83.4417 73.1799 72.7849 58.2555 70.36ZM62.6446 74.717C63.8577 75.0912 65.0378 75.5259 66.1733 76.0174V89.5021L55.5909 86.1054C58.8413 83.2117 61.1476 78.7686 62.6446 74.717ZM74.7525 62.6417C74.5104 62.9061 74.4149 62.8034 63.4218 62.8034C69.6845 58.9424 73.8693 52.0211 73.8693 44.139V41.5683C75.3513 45.3379 80.4571 56.4171 74.7525 62.6417ZM28.1548 32.7173V23.0745C28.1548 12.4345 36.8112 3.77808 47.4509 3.77808H56.4578C67.0979 3.77808 75.7543 12.4345 75.7543 23.0745V32.6872C75.7543 33.0037 75.4919 33.2426 75.1921 33.2426C75.1916 33.2426 75.1908 33.2426 75.19 33.2426C57.9362 33.1833 54.9056 26.4899 53.1209 19.0385C52.9458 18.3084 52.2942 17.7933 51.5434 17.7921C51.5426 17.7921 51.5414 17.7921 51.5406 17.7921C50.7915 17.7921 50.139 18.3048 49.9615 19.0328C47.7799 27.9971 43.1263 33.3904 28.7093 33.273C28.4038 33.2706 28.1548 33.0212 28.1548 32.7173ZM29.2379 62.6417C23.5695 56.4561 28.5883 45.467 30.0398 41.7754V44.139C30.0398 52.0211 34.2254 58.9424 40.4898 62.8034C29.5974 62.8034 29.482 62.9065 29.2379 62.6417ZM33.2898 44.139V36.3528C39.3393 35.8308 43.9181 34.1018 47.201 31.1065C49.2436 29.243 50.5831 27.0534 51.526 24.8202C53.8489 30.3968 58.5447 35.2945 70.6189 36.3012V44.139C70.6189 54.4293 62.2469 62.8013 51.9566 62.8013C41.6638 62.8013 33.2898 54.4293 33.2898 44.139ZM48.9849 66.0534H55.0055V71.7689C55.0055 72.5899 55.6177 73.2822 56.4326 73.3821C57.417 73.5028 58.4485 73.6778 59.4787 73.8968C57.987 77.811 55.5296 82.4992 51.9936 84.7762C48.369 82.4634 46.1013 77.8508 44.523 73.8338C49.7356 72.7528 48.9849 74.4111 48.9849 66.0534ZM37.8171 75.9671C38.959 75.4662 40.1412 75.0258 41.3518 74.6508C42.9545 78.7808 45.0455 83.1528 48.3905 86.1091L37.8171 89.5029V75.9671ZM79.7746 100.222H24.2158C22.8065 100.222 21.6158 99.3622 21.6158 98.3449C21.6158 89.2848 26.8511 82.0913 34.5671 77.6225V91.7312C34.5671 92.8256 35.6335 93.6154 36.6889 93.2786L51.9952 88.3654L67.3019 93.2786C68.3496 93.6158 69.4237 92.8305 69.4237 91.7312V77.6441C77.5804 82.3021 82.375 89.8832 82.375 98.3449C82.3746 99.3618 81.1838 100.222 79.7746 100.222Z" fill="#5F266D"/>
<path d="M57.8284 53.0205V52.1637C57.8284 51.2663 57.1008 50.5387 56.2034 50.5387C55.306 50.5387 54.5784 51.2663 54.5784 52.1637V53.0205C54.5784 54.4675 53.4011 55.6444 51.954 55.6444C50.507 55.6444 49.3301 54.4675 49.3301 53.0205V52.1637C49.3301 51.2663 48.6025 50.5387 47.7051 50.5387C46.8077 50.5387 46.0801 51.2663 46.0801 52.1637V53.0205C46.0801 56.2595 48.715 58.8944 51.954 58.8944C55.1931 58.8944 57.8284 56.2595 57.8284 53.0205Z" fill="#5F266D"/>
<path d="M62.2292 12.6895C65.175 14.1281 67.3878 16.7593 68.2994 19.909C68.5054 20.6203 69.1546 21.0827 69.8594 21.0827C70.0089 21.0827 70.1613 21.0619 70.312 21.0181C71.174 20.7686 71.6705 19.8676 71.421 19.0055C70.2543 14.9763 67.424 11.6097 63.6548 9.76941C62.8484 9.37656 61.8754 9.7105 61.4817 10.5169C61.0885 11.3229 61.4228 12.2955 62.2292 12.6895Z" fill="#5F266D"/>
<path d="M68.7578 25.2601V26.7389C68.7578 27.6363 69.4854 28.3639 70.3828 28.3639C71.2802 28.3639 72.0078 27.6363 72.0078 26.7389V25.2601C72.0078 24.3627 71.2802 23.6351 70.3828 23.6351C69.4854 23.6351 68.7578 24.3627 68.7578 25.2601Z" fill="#5F266D"/>
<path d="M50.7593 46.2413V39.5491C50.7593 37.643 49.2082 36.0916 47.3017 36.0916H38.6998C36.7933 36.0916 35.2422 37.6426 35.2422 39.5491V46.2413C35.2422 48.1474 36.7933 49.6989 38.6998 49.6989H47.3013C49.2078 49.6985 50.7593 48.1474 50.7593 46.2413ZM38.4922 45.9683V44.388L41.5017 42.6752C42.2817 42.2312 42.5543 41.2391 42.1102 40.4591C41.6662 39.6791 40.6746 39.4066 39.8942 39.8506L38.4922 40.6485V39.5491C38.4922 39.435 38.5852 39.3416 38.6998 39.3416H47.3013C47.4159 39.3416 47.5089 39.4346 47.5089 39.5491V40.837L38.4922 45.9683ZM47.5093 44.5765V46.2413C47.5093 46.3555 47.4163 46.4489 47.3017 46.4489H44.2195L47.5093 44.5765Z" fill="#5F266D"/>
<path d="M56.6075 49.6985H65.209C67.1156 49.6985 68.6666 48.1474 68.6666 46.2409V39.5491C68.6666 37.643 67.1156 36.0916 65.209 36.0916H56.6075C54.701 36.0916 53.1499 37.6426 53.1499 39.5491V46.2413C53.1499 48.1474 54.701 49.6985 56.6075 49.6985ZM56.3999 39.5491C56.3999 39.435 56.4929 39.3416 56.6075 39.3416H59.6893L56.3995 41.2135V39.5491H56.3999ZM56.3999 44.9531L65.417 39.8217V41.4021L62.4071 43.1148C61.6271 43.5588 61.3545 44.5509 61.7986 45.3309C62.098 45.8574 62.6472 46.1523 63.2123 46.1523C63.4845 46.1523 63.7607 46.0837 64.0147 45.9395L65.417 45.1416V46.2413C65.417 46.3555 65.324 46.4489 65.2094 46.4489H56.6079C56.4933 46.4489 56.4003 46.3559 56.4003 46.2413V44.9531H56.3999Z" fill="#5F266D"/>
</svg>
