<svg width="24" height="28" viewBox="0 0 24 28" fill="none" xmlns="http://www.w3.org/2000/svg">
<path d="M12 27.3334C12.8257 27.3345 13.6313 27.0782 14.3047 26.6003C14.978 26.1224 15.4858 25.4466 15.7573 24.6668H8.24267C8.51422 25.4466 9.02197 26.1224 9.69535 26.6003C10.3687 27.0782 11.1743 27.3345 12 27.3334ZM21.3333 17.4481V11.3334C21.3333 7.04408 18.42 3.43075 14.4733 2.34408C14.0827 1.36008 13.128 0.666748 12 0.666748C10.872 0.666748 9.91733 1.36008 9.52667 2.34408C5.58 3.43208 2.66667 7.04408 2.66667 11.3334V17.4481L0.390668 19.7241C0.266611 19.8477 0.168228 19.9946 0.101181 20.1564C0.0341335 20.3182 -0.000252599 20.4916 1.3969e-06 20.6667V22.0001C1.3969e-06 22.3537 0.140477 22.6928 0.390526 22.9429C0.640574 23.1929 0.979713 23.3334 1.33333 23.3334H22.6667C23.0203 23.3334 23.3594 23.1929 23.6095 22.9429C23.8595 22.6928 24 22.3537 24 22.0001V20.6667C24.0003 20.4916 23.9659 20.3182 23.8988 20.1564C23.8318 19.9946 23.7334 19.8477 23.6093 19.7241L21.3333 17.4481Z" fill="#0A2463"/>
</svg>
