<svg width="104" height="104" viewBox="0 0 104 104" fill="none" xmlns="http://www.w3.org/2000/svg">
<path d="M22.0645 4.26562H82.1895V99.7344H22.0645V4.26562Z" fill="#44C7B6"/>
<path d="M22.0645 4.26562H28.1582V99.7344H22.0645V4.26562Z" fill="#4BDBC3"/>
<path d="M76.0957 4.26562H82.1895V99.7344H76.0957V4.26562Z" fill="#3BB2A0"/>
<path d="M58.2207 90.8647H50.0957C49.1983 90.8647 48.4707 91.5923 48.4707 92.4897C48.4707 93.3872 49.1983 94.1147 50.0957 94.1147H58.2207C59.1181 94.1147 59.8457 93.3872 59.8457 92.4897C59.8457 91.5923 59.1181 90.8647 58.2207 90.8647Z" fill="#5F266D"/>
<path d="M64.9238 90.8647H64.3145C63.417 90.8647 62.6895 91.5923 62.6895 92.4897C62.6895 93.3872 63.417 94.1147 64.3145 94.1147H64.9238C65.8212 94.1147 66.5488 93.3872 66.5488 92.4897C66.5488 91.5923 65.8212 90.8647 64.9238 90.8647Z" fill="#5F266D"/>
<path d="M11.9082 62.5625C12.8056 62.5625 13.5332 61.8349 13.5332 60.9375V53.625H20.4395V99.7344C20.4395 100.632 21.167 101.359 22.0645 101.359H82.1895C83.0869 101.359 83.8145 100.632 83.8145 99.7344V53.625H90.4668V60.9375C90.4668 61.8349 91.1944 62.5625 92.0918 62.5625C92.9892 62.5625 93.7168 61.8349 93.7168 60.9375V37.646C93.7168 36.7486 92.9892 36.021 92.0918 36.021H83.8145V4.26562C83.8145 3.36822 83.0869 2.64062 82.1895 2.64062H22.0645C21.167 2.64062 20.4395 3.36822 20.4395 4.26562V36.021H11.9082C11.0108 36.021 10.2832 36.7486 10.2832 37.646V60.9375C10.2832 61.8349 11.0112 62.5625 11.9082 62.5625ZM83.8145 39.271H90.4668V43.071H83.8145V39.271ZM83.8145 46.321H90.4668V50.375H83.8145V46.321ZM70.4212 50.375H63.9086V46.321H70.4212V50.375ZM70.4212 43.071H63.9086V39.271H70.4212V43.071ZM73.6712 5.89062H80.5649V36.021H73.6712V5.89062ZM73.6712 39.271H80.5649V43.071H73.6712V39.271ZM73.6712 46.321H80.5649V50.375H73.6712V46.321ZM73.6712 53.625H80.5649V98.1094H73.6712V53.625ZM33.8331 5.89062H70.4212V26.5078H33.8331V5.89062ZM33.8331 29.7578H70.4212V36.021H33.8331V29.7578ZM53.752 43.071V39.271H60.6582V43.071H53.752ZM60.6582 46.321V50.375H53.752V46.321H60.6582ZM43.5957 43.071V39.271H50.502V43.071H43.5957ZM50.502 46.321V50.375H43.5957V46.321H50.502ZM33.8331 39.271H40.3457V43.071H33.8331V39.271ZM33.8331 46.321H40.3457V50.375H33.8331V46.321ZM33.8331 53.625H70.4212V74.2422H33.8331V53.625ZM33.8331 77.4922H70.4212V98.1094H33.8331V77.4922ZM23.6895 5.89062H30.5831V36.021H23.6895V5.89062ZM23.6895 39.271H30.5831V43.071H23.6895V39.271ZM23.6895 46.321H30.5831V50.375H23.6895V46.321ZM23.6895 53.625H30.5831V98.1094H23.6895V53.625ZM13.5332 39.271H20.4395V43.071H13.5332V39.271ZM13.5332 46.321H20.4395V50.375H13.5332V46.321Z" fill="#5F266D"/>
</svg>
