<svg width="104" height="104" viewBox="0 0 104 104" fill="none" xmlns="http://www.w3.org/2000/svg">
<path d="M83.5732 40.3106V68.8712C83.5732 84.4972 72.065 97.5403 57.1154 99.9944C57.1085 99.9944 57.1085 99.9944 57.102 99.9944C53.1264 100.677 47.7777 100.265 46.9595 99.9944C31.9961 97.5602 20.4883 84.5037 20.4883 68.8712V40.3106C20.4883 38.1673 22.2396 36.4094 24.383 36.4094H79.6651C81.8085 36.4094 83.5732 38.1673 83.5732 40.3106Z" fill="#FFBB98"/>
<path d="M83.5732 40.3107V68.8713C83.5732 84.4973 72.0649 97.5403 57.1153 99.9945C57.1084 99.9945 57.1084 99.9945 57.1019 99.9945C53.1263 100.677 47.7777 100.265 46.9595 99.9945C48.697 99.7105 50.3943 99.2778 52.0307 98.7164C64.4246 94.4703 73.4039 82.6781 73.4039 68.8709V40.6755C73.4039 38.3294 71.4836 36.4091 69.144 36.4091H79.665C81.8084 36.4095 83.5732 38.1673 83.5732 40.3107Z" fill="#FFAA80"/>
<path d="M57.1015 99.9949C53.1259 100.678 47.7772 100.265 46.959 99.9949C31.9956 97.5606 20.4878 84.5041 20.4878 68.8716V40.3106C20.4878 38.1673 22.2391 36.4094 24.3825 36.4094H34.917C32.5774 36.4094 30.6505 38.3298 30.6505 40.6759V68.8712C30.6505 82.6785 39.623 94.4703 52.0307 98.7168C53.6666 99.2713 55.3639 99.7105 57.1015 99.9949Z" fill="#FFCAA6"/>
<path d="M91.5489 36.1265V51.068C91.5489 52.4708 90.6954 53.6806 89.4783 54.1928C88.7474 54.5061 88.1425 54.4533 88.0682 54.4602C86.1682 52.5748 83.9192 50.8453 81.3878 49.3166C73.7056 44.6626 63.4108 41.8201 52.0915 41.8201C40.7128 41.8201 30.3587 44.7 22.6688 49.391C20.1676 50.9201 17.9482 52.6345 16.0701 54.5049H15.8698C14.0559 54.5049 12.5 52.9818 12.5 51.1204V36.1265C12.5 32.2371 13.1829 28.5036 14.4374 25.0448C16.0466 20.5883 18.6551 16.5075 22.0306 13.1319C27.9164 7.23848 36.0438 3.60132 45.0252 3.60132H59.0315C76.9934 3.60132 91.5489 18.1642 91.5489 36.1265Z" fill="#87828E"/>
<path d="M91.5492 36.1267V51.0681C91.5492 52.4709 90.6957 53.6807 89.4785 54.193C88.7477 54.5062 88.1428 54.4534 88.0685 54.4603C86.1684 52.5749 83.9194 50.8455 81.3881 49.3168V36.1267C81.3881 33.833 81.1504 31.599 80.6979 29.4463C77.8326 15.6927 66.2687 5.13061 52.0325 3.75707C50.9933 3.65307 49.9394 3.60107 48.8706 3.60107H59.0321C76.9937 3.60148 91.5492 18.1643 91.5492 36.1267Z" fill="#796E84"/>
<path d="M55.1868 3.60144C54.1253 3.60144 53.0714 3.65344 52.0323 3.75744C37.7514 5.13057 26.1801 15.7373 23.3372 29.5356C22.8993 31.666 22.6693 33.8703 22.6693 36.1266V49.3907C20.1977 50.9048 17.9337 52.6638 16.0706 54.5123H15.8703C14.1409 54.5123 12.5078 53.0721 12.5078 51.1128V36.1266C12.5078 27.2716 16.0337 19.1291 22.0307 13.1321C27.9169 7.2386 36.0443 3.60144 45.0257 3.60144H55.1868Z" fill="#A4A4A5"/>
<path d="M91.5494 34.6272V51.0681C91.5494 52.9458 90.0203 54.4676 88.1426 54.4603H88.0683C80.3861 46.8447 67.1371 41.8198 52.0916 41.8198C37.0165 41.8198 23.7455 46.8671 16.0706 54.5046H15.8703C14.0073 54.4899 12.5005 52.9754 12.5005 51.1201V34.8348C19.0395 24.8219 34.3076 17.8003 52.0916 17.8003C69.7496 17.8003 84.9288 24.7256 91.5494 34.6272Z" fill="#5FCDFF"/>
<path d="M91.5495 36.1255V51.0698C91.5495 52.0391 91.1005 52.9982 90.4952 53.5223C89.6295 54.4754 88.1089 54.451 88.0675 54.4603C86.1228 52.5579 84.0058 50.8963 81.3859 49.3144V36.1255C81.3859 33.8346 81.1495 31.5978 80.6969 29.4479C80.3028 27.5556 79.7467 25.7255 79.041 23.9741C84.4072 26.7837 88.7146 30.4148 91.5117 34.5732C91.5369 35.0879 91.5495 35.6067 91.5495 36.1255Z" fill="#73D7F9"/>
<path d="M24.9832 24.0533C24.282 25.8088 23.7259 27.643 23.3355 29.5357C22.8996 31.6649 22.6672 33.8724 22.6672 36.1259V49.3895C20.714 50.5616 18.129 52.488 16.4215 54.1662C16.3013 54.2784 16.1851 54.3946 16.0689 54.5107C16.0027 54.5026 15.1824 54.5839 14.3257 54.1163C13.28 53.5601 12.5081 52.4563 12.5081 51.1116C12.5162 35.4255 12.487 35.8586 12.5369 34.7771C15.3011 30.5729 19.6049 26.8999 24.9832 24.0533Z" fill="#73D7F9"/>
<path d="M24.9832 24.0533C24.282 25.8087 23.7258 27.643 23.3354 29.5357C22.8995 31.6648 22.6671 33.8724 22.6671 36.1259V49.3895C20.6672 50.5896 18.1947 52.4234 16.4214 54.1662C16.3012 54.2743 16.185 54.3904 16.0688 54.5066C15.9916 54.4977 15.1787 54.5822 14.3256 54.1166C13.2385 53.5524 12.4995 52.4193 12.4995 51.1201V34.8348C12.5121 34.8141 12.5243 34.7974 12.5369 34.7767C15.301 30.5728 19.6048 26.8999 24.9832 24.0533Z" fill="#73D7F9"/>
<path d="M91.5495 34.6276V51.0702C91.5495 52.0521 91.094 53.0043 90.4952 53.5227C89.6295 54.4758 88.1089 54.4514 88.0675 54.4607C86.1228 52.5583 84.0058 50.8967 81.3859 49.3148V36.1255C81.3859 33.8346 81.1495 31.5978 80.6969 29.4479C80.3028 27.5556 79.7467 25.7255 79.041 23.9741C84.4072 26.7837 88.7146 30.4148 91.5117 34.5732C91.5247 34.5902 91.5369 34.611 91.5495 34.6276Z" fill="#30B6FF"/>
<path d="M60.5203 38.3032C58.6451 40.1784 56.3055 41.3017 53.8708 41.6779C52.6456 41.868 51.3976 41.866 50.1748 41.6779H50.1723C47.9416 41.3313 45.7921 40.3576 44.0095 38.7561C38.8071 34.068 38.721 26.1274 43.5318 21.3166C45.3843 19.4641 47.7194 18.327 50.1699 17.9444H50.1744C51.3951 17.7542 52.6431 17.7518 53.8749 17.9419C53.8749 17.9419 57.5011 18.2954 60.5199 21.3166C65.2085 26.0072 65.2085 33.6126 60.5203 38.3032Z" fill="#44C7B6"/>
<path d="M47.7263 38.7563C49.5041 40.3528 51.6491 41.327 53.8708 41.678C50.4149 42.2126 46.7704 41.234 44.0095 38.7563C38.8071 34.0681 38.721 26.1276 43.5318 21.3168C46.3085 18.54 50.1723 17.3692 53.8753 17.942C53.8777 17.9445 53.8822 17.9445 53.8842 17.9445C51.658 18.291 49.5085 19.2628 47.7263 20.8662C47.5634 21.0088 47.4025 21.1608 47.2461 21.3168C42.5555 26.0094 42.5555 33.6127 47.2461 38.3033C47.4025 38.4593 47.5634 38.6112 47.7263 38.7563Z" fill="#4BDBC3"/>
<path d="M60.5204 38.3033C58.6451 40.1785 56.3055 41.3018 53.8709 41.678C52.6456 41.8681 51.3976 41.8661 50.1748 41.678C52.4011 41.329 54.5461 40.3552 56.3283 38.7563C56.4891 38.6092 56.6476 38.4597 56.804 38.3033C61.4946 33.6127 61.4946 26.0098 56.804 21.3168C56.6476 21.1604 56.4891 21.0109 56.3283 20.8662C54.5456 19.2628 52.3986 18.2934 50.1748 17.9445C51.3956 17.7544 52.6436 17.7519 53.8753 17.942C53.8753 17.942 57.5015 18.2955 60.5204 21.3168C65.2085 26.0073 65.2085 33.6127 60.5204 38.3033Z" fill="#3BB2A0"/>
<path d="M40.6551 62.0089C41.0285 59.7054 39.4638 57.5353 37.1603 57.1619C34.8568 56.7885 32.6868 58.3531 32.3133 60.6566C31.9399 62.9601 33.5046 65.1302 35.8081 65.5036C38.1116 65.8771 40.2817 64.3124 40.6551 62.0089Z" fill="#5F266D"/>
<path d="M67.9989 65.5062C70.3211 65.2751 72.0163 63.2053 71.7852 60.8831C71.5542 58.5609 69.4844 56.8657 67.1622 57.0968C64.84 57.3278 63.1448 59.3976 63.3759 61.7198C63.6069 64.042 65.6767 65.7372 67.9989 65.5062Z" fill="#5F266D"/>
<path d="M58.6345 75.3323C57.7371 75.3323 57.0095 76.0599 57.0095 76.9573V78.289C57.0095 81.0352 54.7751 83.2696 52.0285 83.2696C49.2822 83.2696 47.0479 81.0352 47.0479 78.289V76.9573C47.0479 76.0599 46.3203 75.3323 45.4229 75.3323C44.5254 75.3323 43.7979 76.0599 43.7979 76.9573V78.289C43.7979 82.8272 47.4903 86.5196 52.0285 86.5196C56.5671 86.5196 60.2595 82.8272 60.2595 78.289V76.9573C60.2595 76.0599 59.5319 75.3323 58.6345 75.3323Z" fill="#5F266D"/>
<path d="M10.8754 51.1197C10.8754 53.8822 13.1163 56.1296 15.8703 56.1296C17.0829 56.1296 16.8863 55.8367 18.8635 54.1414V68.8712C18.8635 76.7671 21.7109 84.4277 26.8809 90.4419C40.1088 105.829 63.8496 105.942 77.1831 90.4317C82.3523 84.4184 85.1984 76.7618 85.1984 68.8712V54.037C85.7989 54.5468 86.3189 55.0144 86.9238 55.614C88.435 57.1123 93.1744 55.1887 93.1744 51.0681C93.1744 33.6245 93.2211 34.6085 93.1179 34.2152C92.1226 16.2708 77.2165 1.97644 59.0315 1.97644H45.0256C29.7957 1.97644 17.4875 11.8142 12.9103 24.4908C10.2693 31.772 10.8754 36.1075 10.8754 51.1197ZM81.9484 68.8712C81.9484 87.1996 65.211 101.308 47.2206 98.3906C32.9072 96.0623 22.1135 83.3715 22.1135 68.8712C22.1135 68.6193 22.1196 51.9387 22.1021 51.6876C38.2892 40.8103 65.4397 40.6145 81.9675 51.6117C81.9379 51.8635 81.9484 50.3198 81.9484 68.8712ZM44.0096 36.4134C42.5337 34.6284 41.7029 32.4302 41.6424 30.0841C41.5765 27.5422 42.4118 25.1355 44.0088 23.2067C47.1617 27.0274 47.1621 32.5919 44.0096 36.4134ZM57.6051 38.5637C54.2211 40.7242 49.8527 40.7404 46.4471 38.5625C50.679 33.5149 50.6778 26.1028 46.445 21.0568C49.771 18.9451 54.0561 18.8135 57.6043 21.0588C53.3732 26.1057 53.3732 33.5157 57.6051 38.5637ZM60.0422 23.2063C63.1935 27.0279 63.1935 32.5927 60.0418 36.4143C56.8889 32.5923 56.8893 27.027 60.0422 23.2063ZM89.9244 51.0681C89.9244 51.8384 89.4031 52.546 88.6528 52.7642C81.2379 45.7539 70.467 41.9352 60.2474 40.6876C66.8985 35.6493 67.4628 25.9643 61.6701 20.1683C61.6701 20.1683 61.6701 20.1683 61.6697 20.1683C61.6599 20.1586 61.6498 20.1504 61.6404 20.1407C74.0176 22.0131 84.5432 27.4625 89.8988 35.0939C89.9345 36.1969 89.9244 34.2047 89.9244 51.0681ZM45.0256 5.22644H59.0315C73.6906 5.22644 85.9886 15.4952 89.1358 29.2167C71.3868 11.7524 32.3486 11.8764 14.8599 29.4008C17.8962 15.7304 30.1049 5.22644 45.0256 5.22644ZM14.1429 35.3028C19.4258 27.5836 29.948 22.0675 42.3903 20.1606C42.3878 20.163 42.385 20.1651 42.3825 20.1679C39.7509 22.8 38.2965 26.4449 38.3932 30.1686C38.5033 34.4208 40.5394 38.2221 43.8211 40.7014C33.7115 41.9519 22.8821 45.7795 15.4652 52.8268C14.7502 52.646 14.125 51.9387 14.125 51.1201C14.1254 34.1234 14.1181 36.2501 14.1429 35.3028Z" fill="#5F266D"/>
<path d="M83.2917 42.2228C82.8249 42.989 83.0674 43.9892 83.8336 44.456C85.5338 45.4915 85.6268 45.7109 86.2833 45.7109C86.8118 45.7109 87.3298 45.4538 87.6422 44.9793C88.1358 44.2297 87.9282 43.2218 87.1782 42.7286C86.6367 42.3719 86.0806 42.0193 85.5252 41.6809C84.7578 41.2129 83.7584 41.4571 83.2917 42.2228Z" fill="#5F266D"/>
<path d="M80.0045 38.7136C73.9457 35.8674 69.4501 35.022 69.2616 34.9875C68.3768 34.8254 67.5338 35.4088 67.3709 36.2907C67.2084 37.1723 67.7914 38.0197 68.673 38.1839C68.7152 38.1916 72.9731 39.0016 78.6232 41.6553C78.8467 41.7601 79.0815 41.8096 79.3126 41.8096C79.9232 41.8096 80.5078 41.4639 80.7845 40.8753C81.1659 40.0632 80.817 39.0955 80.0045 38.7136Z" fill="#5F266D"/>
</svg>
